<?xml version="1.0" encoding="utf-8"?>
<!-- Generator: Adobe Illustrator 24.3.0, SVG Export Plug-In . SVG Version: 6.00 Build 0)  -->
<svg version="1.1" id="Layer_1" xmlns="http://www.w3.org/2000/svg" xmlns:xlink="http://www.w3.org/1999/xlink" x="0px" y="0px"
	 viewBox="0 0 25.1 25.1" style="enable-background:new 0 0 25.1 25.1;" xml:space="preserve">
<style type="text/css">
	.st0{fill-rule:evenodd;clip-rule:evenodd;fill:#E9AC3D;}
</style>
<g>
	<path class="st0" d="M15.4,9.8c0.9,0.4,1.8,0.6,2.8,0.6c0.8,0,1.7-0.2,2.4-0.5v3.3c-0.9,0.4-1.5,0.6-2.4,0.6c-0.3,0-0.6,0-0.9,0
		V3.1c0.3,0,0.6,0,0.9,0c1.1,0,1.4-0.1,2.4-0.5V6c-0.8,0.3-1.6,0.5-2.4,0.5c-1.1,0-1.8-0.2-2.8-0.6c-0.8-0.4-1.2-0.5-2.1-0.5
		s-1.3,0.1-2,0.5c-0.9,0.4-1.8,0.7-2.8,0.7c-1.2,0-2.4-0.4-3.4-1v3.9c1.1,0.7,2.1,1,3.4,1c1.1,0,1.8-0.2,2.8-0.6
		c0.8-0.4,1.3-0.5,2.1-0.5C14.2,9.3,14.6,9.5,15.4,9.8 M11,13.2c-0.8,0.4-0.9,0.4-1.8,0.5V3.1C10,3,10.8,2.8,11.5,2.5
		s1.1-0.4,1.8-0.4v10.6C12.5,12.7,11.7,12.9,11,13.2 M11.2,13.8c-1,0.5-1.7,0.6-2.8,0.6c-1.3,0-2.4-0.9-3.5-1.6v10.7h-1v-22H5
		c1,0.7,2.3,1.1,3.5,1.1c0.9,0,1.9-0.2,2.7-0.6s1.3-0.5,2.1-0.5c0.8,0,1.3,0.1,2.1,0.5c1,0.5,1.7,0.6,2.8,0.6c1.2,0,2-0.2,3.1-0.8
		v11.8c-1,0.6-1.9,0.8-3,0.8s-1.8-0.1-2.8-0.6c-0.6-0.3-1.3-0.5-2.1-0.5S11.9,13.4,11.2,13.8"/>
</g>
</svg>
